<svg width="63" height="63" viewBox="0 0 63 63" fill="none" xmlns="http://www.w3.org/2000/svg">
<path d="M33.0591 16.6477C33.0591 25.7115 25.7115 33.0591 16.6477 33.0591C7.58395 33.0591 0.236328 25.7115 0.236328 16.6477C0.236328 7.58395 7.58395 0.236328 16.6477 0.236328C25.7115 0.236328 33.0591 7.58395 33.0591 16.6477ZM5.15974 16.6477C5.15974 22.9923 10.3031 28.1357 16.6477 28.1357C22.9923 28.1357 28.1357 22.9923 28.1357 16.6477C28.1357 10.3031 22.9923 5.15974 16.6477 5.15974C10.3031 5.15974 5.15974 10.3031 5.15974 16.6477Z" fill="white"/>
<path d="M33.0591 46.5164C33.0591 55.5801 25.7115 62.9277 16.6477 62.9277C7.58395 62.9277 0.236328 55.5801 0.236328 46.5164C0.236328 37.4526 7.58395 30.105 16.6477 30.105C25.7115 30.105 33.0591 37.4526 33.0591 46.5164ZM5.15974 46.5164C5.15974 52.861 10.3031 58.0043 16.6477 58.0043C22.9923 58.0043 28.1357 52.861 28.1357 46.5164C28.1357 40.1717 22.9923 35.0284 16.6477 35.0284C10.3031 35.0284 5.15974 40.1717 5.15974 46.5164Z" fill="white"/>
<path d="M62.9277 16.6477C62.9277 25.7115 55.5801 33.0591 46.5164 33.0591C37.4526 33.0591 30.105 25.7115 30.105 16.6477C30.105 7.58395 37.4526 0.236328 46.5164 0.236328C55.5801 0.236328 62.9277 7.58395 62.9277 16.6477ZM35.0284 16.6477C35.0284 22.9923 40.1717 28.1357 46.5164 28.1357C52.861 28.1357 58.0043 22.9923 58.0043 16.6477C58.0043 10.3031 52.861 5.15974 46.5164 5.15974C40.1717 5.15974 35.0284 10.3031 35.0284 16.6477Z" fill="white"/>
<path d="M62.9277 46.5164C62.9277 55.5801 55.5801 62.9277 46.5164 62.9277C37.4526 62.9277 30.105 55.5801 30.105 46.5164C30.105 37.4526 37.4526 30.105 46.5164 30.105C55.5801 30.105 62.9277 37.4526 62.9277 46.5164ZM35.0284 46.5164C35.0284 52.861 40.1717 58.0043 46.5164 58.0043C52.861 58.0043 58.0043 52.861 58.0043 46.5164C58.0043 40.1717 52.861 35.0284 46.5164 35.0284C40.1717 35.0284 35.0284 40.1717 35.0284 46.5164Z" fill="white"/>
<path d="M51.4397 31.4999C51.4397 42.5123 42.5123 51.4397 31.4999 51.4397C20.4874 51.4397 11.5601 42.5123 11.5601 31.4999C11.5601 20.4874 20.4874 11.5601 31.4999 11.5601C42.5123 11.5601 51.4397 20.4874 51.4397 31.4999ZM17.542 31.4999C17.542 39.2086 23.7912 45.4578 31.4999 45.4578C39.2086 45.4578 45.4578 39.2086 45.4578 31.4999C45.4578 23.7912 39.2086 17.542 31.4999 17.542C23.7912 17.542 17.542 23.7912 17.542 31.4999Z" fill="white"/>
</svg>
